<svg id="Donate_Icon" xmlns="http://www.w3.org/2000/svg" width="65.939" height="65.939" viewBox="0 0 65.939 65.939">
  <path id="Icon_material-insert-emoticon" data-name="Icon material-insert-emoticon" d="M35.936,3a32.969,32.969,0,1,0,33,32.969A32.953,32.953,0,0,0,35.936,3Zm.033,59.345A26.375,26.375,0,1,1,62.345,35.969,26.368,26.368,0,0,1,35.969,62.345ZM47.509,32.672a4.945,4.945,0,1,0-4.945-4.945A4.939,4.939,0,0,0,47.509,32.672Zm-23.079,0a4.945,4.945,0,1,0-4.945-4.945A4.939,4.939,0,0,0,24.43,32.672ZM35.969,54.1A18.121,18.121,0,0,0,52.817,42.563H19.122A18.121,18.121,0,0,0,35.969,54.1Z" transform="translate(-3 -3)" fill="#341671"/>
</svg>
