<svg xmlns="http://www.w3.org/2000/svg" xmlns:xlink="http://www.w3.org/1999/xlink" width="272" height="513" viewBox="0 0 272 513">
  <defs>
    <filter id="Rectangle_37" x="0" y="0" width="272" height="513" filterUnits="userSpaceOnUse">
      <feOffset dy="3" input="SourceAlpha"/>
      <feGaussianBlur stdDeviation="3" result="blur"/>
      <feFlood flood-opacity="0"/>
      <feComposite operator="in" in2="blur"/>
      <feComposite in="SourceGraphic"/>
    </filter>
  </defs>
  <g id="Group_43" data-name="Group 43" transform="translate(-52 -232)">
    <g transform="matrix(1, 0, 0, 1, 52, 232)" filter="url(#Rectangle_37)">
      <g id="Rectangle_37-2" data-name="Rectangle 37" transform="translate(9 6)" fill="#f54952" stroke="#1d1d1d" stroke-width="8">
        <rect width="254" height="495" rx="24" stroke="none"/>
        <rect x="4" y="4" width="246" height="487" rx="20" fill="none"/>
      </g>
    </g>
    <path id="Rectangle_43" data-name="Rectangle 43" d="M0,0H121a0,0,0,0,1,0,0V0a16,16,0,0,1-16,16H16A16,16,0,0,1,0,0V0A0,0,0,0,1,0,0Z" transform="translate(127 244)" fill="#1d1d1d"/>
  </g>
</svg>
